inDegrees=no
num_controls=7
num_derivatives=13
num_iterations=133
num_multipliers=7
num_parameters=0
num_slacks=7
num_states=26
objective=5.620731
objective_accelerations=0.606816
objective_balance=0.104060
objective_effort=0.444395
objective_height=4.362911
objective_ligament=0.102548
solver_duration=1618.977747
status=Solve_Succeeded
success=true
DataType=double
version=3
OpenSimVersion=4.4-2022-07-23-0e9fedc
endheader
time	/jointset/ground_pelvis/pelvis_tilt/value	/jointset/ground_pelvis/pelvis_tx/value	/jointset/ground_pelvis/pelvis_ty/value	/jointset/hip_l/hip_flexion_l/value	/jointset/hip_l/hip_adduction_l/value	/jointset/hip_l/hip_rotation_l/value	/jointset/back/lumbar_extension/value	/jointset/patellofemoral_l/patellar_flexion_l/value	/jointset/knee_l/knee_flexion_l/value	/jointset/knee_l/knee_adduction_l/value	/jointset/knee_l/knee_rotation_l/value	/jointset/ankle_l/ankle_angle_l/value	/jointset/subtalar_l/subtalar_angle_l/value	/jointset/ground_pelvis/pelvis_tilt/speed	/jointset/ground_pelvis/pelvis_tx/speed	/jointset/ground_pelvis/pelvis_ty/speed	/jointset/hip_l/hip_flexion_l/speed	/jointset/hip_l/hip_adduction_l/speed	/jointset/hip_l/hip_rotation_l/speed	/jointset/back/lumbar_extension/speed	/jointset/patellofemoral_l/patellar_flexion_l/speed	/jointset/knee_l/knee_flexion_l/speed	/jointset/knee_l/knee_adduction_l/speed	/jointset/knee_l/knee_rotation_l/speed	/jointset/ankle_l/ankle_angle_l/speed	/jointset/subtalar_l/subtalar_angle_l/speed	/forceset/tau_hip_flexion_l	/forceset/tau_hip_adduction_l	/forceset/tau_hip_rotation_l	/forceset/tau_knee_flexion_l	/forceset/tau_ankle_angle_l	/forceset/tau_subtalar_angle_l	/forceset/tau_lumbar_extension	lambda_cid13_p0	lambda_cid13_p1	lambda_cid13_p2	lambda_cid13_p3	lambda_cid13_p4	lambda_cid13_p5	lambda_cid14_p0	/jointset/ground_pelvis/pelvis_tilt/accel	/jointset/ground_pelvis/pelvis_tx/accel	/jointset/ground_pelvis/pelvis_ty/accel	/jointset/hip_l/hip_flexion_l/accel	/jointset/hip_l/hip_adduction_l/accel	/jointset/hip_l/hip_rotation_l/accel	/jointset/back/lumbar_extension/accel	/jointset/patellofemoral_l/patellar_flexion_l/accel	/jointset/knee_l/knee_flexion_l/accel	/jointset/knee_l/knee_adduction_l/accel	/jointset/knee_l/knee_rotation_l/accel	/jointset/ankle_l/ankle_angle_l/accel	/jointset/subtalar_l/subtalar_angle_l/accel	gamma_cid13_p0	gamma_cid13_p1	gamma_cid13_p2	gamma_cid13_p3	gamma_cid13_p4	gamma_cid13_p5	gamma_cid14_p0
0.5	-0.4587079887678502	-0.07102863928237022	0.7669774703851443	1.257193097467241	-0.3089532076586581	-0.05519040352756422	-0.3280083434202798	0.6649609607042851	0.6649609607042271	-0.172124629903483	0.1743857148889667	0.03118700075243076	-0.04914948553672431	-0.7819469783242305	-0.2682278842997569	-0.48078727599347	2.364152978045541	-0.04094125802897969	0.598278566058418	-0.6231407746767067	1.717623360555197	1.717623360555074	-0.0080490512667581	0.0002010275943112282	0.2246426036555054	-0.01667781504922995	-0.2505614987878661	0.02254676656089279	-0.01991828395966467	-0.189465904875245	0.1305883193067301	0.04207640801802721	0.2227763100068525	3.188547557164308	-21.63396051940004	6.247052547510027	-4.105213320021147	-607.2078397028567	-57.29193464953151	-29.67622427979901	0.5974224843331254	0.6701641284329883	-0.3008450502903126	-1.4893194931115	0.5572739344394573	-0.2694776827232252	1.731696463885298	-1.044388032422911	-1.044388032422906	-0.002316991552724182	-0.01971972838121958	-0.08861950114543095	0.5400451997607179	-1.779615936212234e-07	-9.389494607818974e-07	9.221659081484051e-07	-2.626949436582988e-08	-2.892089561242804e-07	-2.49650984709931e-08	-2.549258960523122e-07
0.51	-0.4664958883729498	-0.07367708234426291	0.7621555720938653	1.28075594431807	-0.3093360847600397	-0.04922186325987953	-0.3341531846337772	0.6820823526734007	0.6820823526734023	-0.1722075498802804	0.1743876758592911	0.03342815393429702	-0.04929070155907903	-0.7755316417530583	-0.2614368126977057	-0.4834939404850158	2.34810625779976	-0.03564049366264023	0.5953312484226484	-0.6057576579269782	1.706426195516782	1.706426195516684	-0.00850795792782544	0.0002075017202225501	0.2235450422068566	-0.01157236964538777	-0.2589951200034301	0.02332130454227837	-0.01999893391390636	-0.1903392107015182	0.1300731343827867	0.04273176862460631	0.2292386985541978	2.785748115350145	-21.74050024395854	6.141182629325511	-4.05346349037853	-611.6833989042616	-56.89255776880719	-28.70429207060264	0.6787527902537097	0.6871685281099288	-0.2408728797006278	-1.708906545711743	0.5154888100008121	-0.3223521660673069	1.752090795161529	-1.191651317734781	-1.191651317730958	-0.06372170598606371	0.01302313998187879	-0.1267780187373329	0.4947510361027624	-2.33510985464152e-07	-7.812959363842056e-07	1.175030928141468e-06	3.500963849600666e-08	-3.146841841286449e-07	2.380560083262213e-08	-2.778598932414541e-07
0.52	-0.4742166019029934	-0.07625689671973213	0.7573095480114481	1.304149012315356	-0.3096661519932999	-0.04328579484096075	-0.3401221003768489	0.6990849188765165	0.6990849188765434	-0.1722942677642693	0.1743901400021875	0.0356570407912762	-0.04938107176231408	-0.7685097633120899	-0.2545021470150628	-0.4856124342210834	2.330197207337947	-0.03037928440552017	0.5917841963043526	-0.5879556805914247	1.693858207351013	1.693858207350942	-0.008808632692970558	0.0003016621223175258	0.2221893386776998	-0.006508651225267184	-0.2674287412189874	0.02409584252368706	-0.02007958386867613	-0.1912125165277059	0.1295579494588622	0.04338712923121175	0.2357010871015384	2.376339639024087	-21.84937187794708	6.039670482623167	-4.00051972552112	-616.270508384591	-56.56592238216496	-27.71902199350945	0.7187308582926092	0.6988829445511161	-0.1832108991947351	-1.861785536318013	0.5493629125955595	-0.3894245792284242	1.815468581050463	-1.318552657893491	-1.318552657893493	0.02932938763175685	-0.002182473144554685	-0.1402479172473237	0.5316998030163607	-2.619661767299423e-07	-6.501117085592054e-07	1.299382713265854e-06	8.002896551791724e-08	-3.241726627901062e-07	6.894792725112845e-08	-2.827825435729871e-07
0.53	-0.4818642562570395	-0.07876676105826957	0.7524452833581978	1.327353977406457	-0.3099439148833566	-0.0373873285783593	-0.3459110575022612	0.7159548789241507	0.7159548789241437	-0.1723837519885557	0.1743933223925656	0.03787098324584433	-0.04942115148980625	-0.7609269102844414	-0.2474563261958744	-0.4871417277991389	2.310503699775797	-0.02519118682019048	0.5878341069768059	-0.569790333525268	1.679912285867528	1.6799122858675	-0.009085395218552421	0.000338399409553141	0.2205523684967489	-0.001527096267253254	-0.2755845085500319	0.02465179413066237	-0.02014512522602435	-0.192186130157191	0.1290863546163889	0.04385325212965312	0.2418767494138358	1.982504290088425	-21.88063554604836	5.927899371339358	-3.878218421711531	-620.7057785050627	-56.13442644568512	-26.72951426367348	0.7921574837895923	0.7096115596060616	-0.1230391240671991	-2.066992213893612	0.5007420055970097	-0.4092996037933334	1.823879414550565	-1.465782266049405	-1.465782266042915	-0.05579366898862048	0.006843749823093472	-0.1824394476732105	0.4783461847180372	-2.60009470503585e-07	-5.68088325011964e-07	1.288112375311093e-06	9.282656866159082e-08	-3.104755931775494e-07	9.636664001990675e-08	-2.723039684077989e-07
0.54	-0.4894332630890543	-0.08120573120681507	0.7475686756617758	1.35035323565238	-0.3101703550327375	-0.03153066290790759	-0.3515169988279833	0.7326787456824512	0.732678745682428	-0.1724759267573538	0.174396920539843	0.04006715242277151	-0.04941202309921361	-0.7527802589052183	-0.2403233090166776	-0.488081042855425	2.28905583830444	-0.02011473627103181	0.5834240778782361	-0.5513525206529929	1.664639549485109	1.664639549485125	-0.009346741597549673	0.0003848135034012549	0.2186346831496293	0.003332972391730255	-0.2837402758811362	0.0252077457375898	-0.02021066658322715	-0.1931597437867009	0.1286147597739075	0.04431937502804743	0.2480524117260845	1.585416322962649	-21.9150527707344	5.82088441622667	-3.777337110420058	-625.2130563865103	-55.77408769289983	-25.74141187981884	0.8314905286077556	0.7163222165525813	-0.06521519484090034	-2.212656318159182	0.527033505361397	-0.4814125334329989	1.869961742274272	-1.583915637680178	-1.583915637680183	0.03241261694870728	-0.0002471118221296464	-0.1963909504813234	0.507402543210239	-2.244055585412341e-07	-5.404556627933078e-07	1.126792028843233e-06	6.99746049612571e-08	-2.711264276022489e-07	1.04176248325156e-07	-2.447857395015572e-07
0.55	-0.4969181016698733	-0.08357298983145345	0.7426856380785788	1.373129504585292	-0.3103464190550509	-0.02572061166472374	-0.3569371925231011	0.7492434702535761	0.7492434702535928	-0.1725700872702771	0.1744011213067184	0.04224288853316643	-0.0493547050144803	-0.7440980335206524	-0.2331185997639196	-0.4884249121912729	2.265911257609158	-0.01512041783011565	0.5785172040053801	-0.5326480298872189	1.648087298675048	1.648087298675107	-0.009485640125626915	0.0004532020019455701	0.2164694829401247	0.008106732631287606	-0.2917701172586181	0.02557305763146734	-0.02025817640851664	-0.1942171313512006	0.1282098136996454	0.04464674827003663	0.2540905782056265	1.205628188837851	-21.89390829567623	5.706916236095593	-3.65036272002283	-629.7098234432925	-55.3443391238662	-24.75513508826481	0.8999747911909264	0.7240292031071623	-0.003788496837213039	-2.408395455122669	0.4822051246705673	-0.5058772060823253	1.876421016508017	-1.723543757240053	-1.723543757233652	-0.03713102955464555	0.009830400454624966	-0.2330435143509155	0.458738006319666	-1.968756458462431e-07	-5.023623462447373e-07	1.006566370829124e-06	5.43713898710439e-08	-2.375653715254868e-07	1.136754301773137e-07	-2.222383318151323e-07
0.5600000000000001	-0.5043134407472872	-0.08586790457887093	0.7378021986632474	1.395665720409264	-0.3104732250707057	-0.01996173963865226	-0.3621691956560068	0.765636139525691	0.7656361395257478	-0.1726656547568704	0.1744058956725016	0.04439568084983394	-0.0492503742789533	-0.7348803582236672	-0.2258545335724966	-0.4881614092823233	2.241045216517468	-0.01026313494064365	0.5731882344577125	-0.5137144082102569	1.630228489682148	1.63022848968225	-0.009628136328441181	0.0004995332909628725	0.2140459244039852	0.01273550255049813	-0.2997999586361283	0.02593836952533802	-0.02030568623394111	-0.1952745189156783	0.1278048676253888	0.04497412151201746	0.2601287446851381	0.821074395090855	-21.8749982137397	5.59681017389052	-3.534893240603252	-634.2971170416877	-54.97629970885804	-23.77143186856677	0.9385805110918871	0.7281936042853703	0.0562592541185609	-2.556948397440865	0.4996263950725898	-0.5658316683952143	1.915787924512056	-1.845227274247939	-1.845227274247942	0.03169308200134281	-0.004658553727638384	-0.2480626158085988	0.4784044791408513	-1.790345322720839e-07	-4.517162445002699e-07	9.356543389595144e-07	4.746667311297504e-08	-2.109500468469705e-07	1.252021002857615e-07	-2.056559095924872e-07
0.5700000000000001	-0.5116140436294322	-0.08808995470106	0.7329244183055952	1.417944972680211	-0.3105520323602466	-0.01425832145612899	-0.3672107856730448	0.7818439159960768	0.7818439159960651	-0.1727623198047353	0.1744110258429346	0.04652305296933526	-0.04910035406746063	-0.7251559498753679	-0.2185521034531396	-0.4872930461177926	2.214531910363136	-0.005524167161357554	0.5674219368320071	-0.4945795909142144	1.611119992198301	1.611119992198401	-0.009700363171652803	0.0005289417350214316	0.2113886521428136	0.01724117744862646	-0.3075988429604379	0.02615929863691705	-0.02033390986988769	-0.1963364302368899	0.1273689204169488	0.04515587285516677	0.2659287674715475	0.4312508861230904	-21.79299925121418	5.477876144572557	-3.363141375211443	-638.7210776770429	-54.51978866961151	-22.79119700720562	1.001987895691142	0.7317845392253125	0.1173280880561376	-2.739548557413308	0.4570865078236657	-0.5932238638471371	1.915929274889125	-1.97464355976387	-1.974643559764183	-0.02604405956006726	0.006907907024930264	-0.2805354270450231	0.4325070276408909	-1.614843729665505e-07	-4.009454394385049e-07	8.64547240459457e-07	4.09909956941298e-08	-1.853195877983551e-07	1.340007336448039e-07	-1.888838167358696e-07
0.58	-0.5188148790482986	-0.09023887715736317	0.7280583622276753	1.439950886523013	-0.3105842390642948	-0.008614805260715893	-0.372060307388576	0.7978544109767641	0.7978544109766884	-0.1728595798194568	0.1744164835704942	0.04862265718707053	-0.04890610550048839	-0.7149268655673566	-0.211229000395314	-0.4858165533358167	2.18637753088944	-0.0009430178433840347	0.5612078370387458	-0.4753007479085974	1.590772191742025	1.590772191742124	-0.00974712969796151	0.0005650447211688111	0.2084923440506988	0.02158117364644254	-0.31539772728478	0.02638022774847619	-0.02036213350586065	-0.1973983415580971	0.126932973208509	0.04533762419829585	0.2717287902579265	0.03544146064601535	-21.7127084682038	5.362363256968457	-3.196441811397223	-643.2507132302477	-54.12021700900985	-21.81558750614692	1.039515703034544	0.7323281919788687	0.1778851776075215	-2.88516306131359	0.4680627028101175	-0.6553921019063337	1.944593066427109	-2.093087868733498	-2.093087868733499	0.03678514538197224	-0.003319645310006124	-0.2958697819975193	0.445268739078393	-1.443131308480647e-07	-3.500122300565387e-07	7.931861016964908e-07	3.507406718218049e-08	-1.609717444537966e-07	1.392465749581092e-07	-1.718647109605904e-07
